<mxfile host="app.diagrams.net" modified="2023-09-26T09:07:06.479Z" agent="Mozilla/5.0 (Windows NT 10.0; Win64; x64) AppleWebKit/537.36 (KHTML, like Gecko) Chrome/117.0.0.0 Safari/537.36 Edg/117.0.2045.41" version="21.8.2" etag="9Q38rizrhAXPXeytB7eh" type="github">
  <diagram name="第 1 页" id="ZNkqyjCpcr9Y3xrDaqb5">
    <mxGraphModel>
      <root>
        <mxCell id="0" />
        <mxCell id="1" parent="0" />
      </root>
    </mxGraphModel>
  </diagram>
</mxfile>
